<svg width="74" height="37" viewBox="0 0 74 37" fill="none" xmlns="http://www.w3.org/2000/svg">
<g id="Vector" filter="url(#filter0_d_647_319)">
<path d="M49.5334 0.340088C42.6977 0.340088 37.3512 4.61109 33.9075 8.46843C30.4638 4.61109 25.1173 0.340088 18.2816 0.340088C8.65379 0.340088 0.815002 7.76522 0.815002 16.8863C0.815002 26.0075 8.65379 33.4326 18.2816 33.4326C25.1173 33.4326 30.4638 29.1616 33.9075 25.3042C37.3512 29.1616 42.6977 33.4326 49.5334 33.4326C59.1612 33.4326 67 26.0075 67 16.8863C67 7.76522 59.1612 0.340088 49.5334 0.340088ZM18.2816 23.5048C14.1244 23.5048 10.7428 20.5369 10.7428 16.8863C10.7428 13.2358 14.1244 10.2678 18.2816 10.2678C22.2321 10.2678 25.8722 14.0011 28.0026 16.8863C25.8929 19.7406 22.2217 23.5048 18.2816 23.5048ZM49.5334 23.5048C45.583 23.5048 41.9428 19.7716 39.8124 16.8863C41.9221 14.0321 45.5933 10.2678 49.5334 10.2678C53.6906 10.2678 57.0723 13.2358 57.0723 16.8863C57.0723 20.5369 53.6906 23.5048 49.5334 23.5048Z" fill="white"/>
<path d="M33.2663 9.04087L33.9075 9.75909L34.5487 9.04087C37.9355 5.24729 43.0662 1.19963 49.5334 1.19963C58.731 1.19963 66.1405 8.2832 66.1405 16.8863C66.1405 25.4895 58.731 32.573 49.5334 32.573C43.0662 32.573 37.9355 28.5254 34.5487 24.7318L33.9075 24.0136L33.2663 24.7318C29.8795 28.5254 24.7488 32.573 18.2816 32.573C9.08405 32.573 1.67455 25.4895 1.67455 16.8863C1.67455 8.2832 9.08405 1.19963 18.2816 1.19963C24.7488 1.19963 29.8795 5.24729 33.2663 9.04087ZM28.6938 17.3972L29.0712 16.8866L28.694 16.3758C27.6005 14.8947 26.1044 13.1741 24.3511 11.8156C22.6065 10.464 20.5255 9.40829 18.2816 9.40829C13.7583 9.40829 9.88321 12.6593 9.88321 16.8863C9.88321 21.1134 13.7583 24.3644 18.2816 24.3644C20.5219 24.3644 22.6085 23.2994 24.3552 21.9452C26.1116 20.5835 27.6101 18.8634 28.6938 17.3972ZM39.1212 16.3754L38.7438 16.8861L39.121 17.3969C40.2145 18.8779 41.7106 20.5986 43.4639 21.957C45.2085 23.3087 47.2895 24.3644 49.5334 24.3644C54.0567 24.3644 57.9318 21.1134 57.9318 16.8863C57.9318 12.6593 54.0567 9.40829 49.5334 9.40829C47.2931 9.40829 45.2065 10.4733 43.4598 11.8275C41.7034 13.1892 40.2049 14.9093 39.1212 16.3754Z" stroke="black" stroke-width="1.71909"/>
</g>
<defs>
<filter id="filter0_d_647_319" x="0.815002" y="0.340088" width="73.0614" height="36.5307" filterUnits="userSpaceOnUse" color-interpolation-filters="sRGB">
<feFlood flood-opacity="0" result="BackgroundImageFix"/>
<feColorMatrix in="SourceAlpha" type="matrix" values="0 0 0 0 0 0 0 0 0 0 0 0 0 0 0 0 0 0 127 0" result="hardAlpha"/>
<feOffset dx="6.87636" dy="3.43818"/>
<feComposite in2="hardAlpha" operator="out"/>
<feColorMatrix type="matrix" values="0 0 0 0 0 0 0 0 0 0 0 0 0 0 0 0 0 0 1 0"/>
<feBlend mode="normal" in2="BackgroundImageFix" result="effect1_dropShadow_647_319"/>
<feBlend mode="normal" in="SourceGraphic" in2="effect1_dropShadow_647_319" result="shape"/>
</filter>
</defs>
</svg>
