<svg width="42" height="46" viewBox="0 0 42 46" fill="none" xmlns="http://www.w3.org/2000/svg">
<g id="Vector">
<path d="M0 33.9407C0 34.2857 0.184214 34.6044 0.483187 34.7767L18.9361 45.412C19.5811 45.7838 20.3866 45.3168 20.384 44.5727L20.3434 33.1046C20.3422 32.7497 20.1461 32.4241 19.8328 32.2569L11.7244 27.9281C11.4101 27.7603 11.2138 27.4331 11.2138 27.0769V19.1505C11.2138 18.8315 11.0561 18.5331 10.7924 18.3534L1.50964 12.0241C0.868739 11.5872 0 12.0459 0 12.8213V33.9407Z" fill="white"/>
<path d="M21.6876 33.1836C21.6915 33.9043 22.4559 34.3665 23.0965 34.0354L24.6556 33.2297C24.9762 33.064 25.1776 32.7334 25.1776 32.3726V26.9678C25.1776 26.7005 25.3306 26.4568 25.5714 26.3405C26.0344 26.1168 26.572 26.4539 26.572 26.9678V33.8906C26.572 34.2461 26.3764 34.5728 26.063 34.7409L22.2052 36.8096C21.8918 36.9776 21.6962 37.3044 21.6962 37.6599V44.608C21.6962 45.3514 22.5018 45.8156 23.1455 45.4432L35.4306 38.335C35.7288 38.1625 35.9123 37.8442 35.9123 37.4999V36.4205C35.9123 35.6799 35.1121 35.2154 34.4684 35.5824L25.6676 40.5999C25.0239 40.9669 24.2237 40.5023 24.2237 39.7617V39.1551C24.2237 38.8095 24.4086 38.4903 24.7084 38.3182L29.8049 35.3937C30.1048 35.2217 30.2897 34.9025 30.2897 34.5569V22.0377C30.2897 21.3108 29.5159 20.8449 28.8729 21.1846L22.1601 24.7315C21.8421 24.8996 21.6439 25.2304 21.6459 25.5899L21.6876 33.1836Z" fill="white"/>
<path d="M41.5214 34.8095C41.8178 34.6365 42 34.3192 42 33.9762V27.1167C42 26.3736 41.1949 25.9093 40.5513 26.2812L35.7551 29.0524C35.112 29.424 34.3074 28.9608 34.3064 28.2183L34.2949 19.9874C34.2938 19.2436 33.4867 18.7805 32.8435 19.1548L31.6449 19.8523C31.3479 20.0251 31.1652 20.3427 31.1652 20.6862V33.1107C31.1652 33.8484 31.9598 34.3133 32.6034 33.9521L37.9932 30.9279C38.6368 30.5667 39.4314 31.0316 39.4314 31.7693V34.3483C39.4314 35.0932 40.2401 35.5572 40.8838 35.1816L41.5214 34.8095Z" fill="white"/>
<path d="M33.6669 7.86364C34.3102 7.49078 34.308 6.56165 33.663 6.19185L32.6505 5.61137C32.0066 5.24224 31.2042 5.70703 31.2045 6.44889L31.2051 7.61591C31.2055 8.35938 32.0115 8.82318 32.655 8.45019L33.6669 7.86364Z" fill="white"/>
<path d="M30.0458 17.1722C30.0458 16.8187 30.2392 16.4935 30.5499 16.3246L39.6166 11.3954C40.2809 11.0343 40.2908 10.0848 39.6343 9.70986L36.4974 7.91831C36.2005 7.74879 35.8361 7.74879 35.5393 7.91831L31.4903 10.2307C30.8466 10.5983 30.0458 10.1338 30.0458 9.3929V4.67049C30.0458 4.32495 29.8609 4.00579 29.5611 3.8337L23.1191 0.135865C22.4755 -0.233611 21.6728 0.230759 21.6727 0.972617L21.672 21.6191C21.6719 22.3506 22.4546 22.8162 23.0979 22.4673L29.5407 18.9739C29.8519 18.8052 30.0458 18.4797 30.0458 18.1257V17.1722Z" fill="white"/>
<path d="M20.3414 12.4667C20.3414 12.8013 20.1681 13.1119 19.8833 13.2877L12.3602 17.9323C12.0358 18.1327 11.6237 18.1233 11.3087 17.9085L1.88551 11.4836C1.29695 11.0823 1.3311 10.2039 1.94904 9.84948L18.8953 0.129466C19.539 -0.239732 20.3414 0.224682 20.3414 0.966413V12.4667Z" fill="white"/>
</g>
</svg>
