<svg width="395" height="515" viewBox="0 0 395 515" fill="none" xmlns="http://www.w3.org/2000/svg">
<path d="M14.2277 508.743C15.1675 507.789 16.0693 506.871 16.9333 505.992C17.7973 505.098 18.5703 504.242 19.2523 503.423C19.9496 502.59 20.4952 501.786 20.8893 501.013C21.2986 500.24 21.5032 499.49 21.5032 498.762C21.5032 498.444 21.4426 498.156 21.3213 497.898C21.2152 497.641 21.056 497.421 20.8438 497.239C20.6468 497.057 20.4043 496.921 20.1163 496.83C19.8435 496.724 19.5327 496.671 19.1841 496.671C18.8355 496.671 18.5248 496.724 18.252 496.83C17.9791 496.921 17.7518 497.05 17.5699 497.216C17.388 497.383 17.244 497.565 17.1379 497.762C17.047 497.959 17.0015 498.164 17.0015 498.376C17.0015 498.861 17.0773 499.293 17.2289 499.672C17.3956 500.036 17.6154 500.361 17.8882 500.649L15.8647 502.491C15.4252 502.279 15.0462 501.923 14.7279 501.422C14.4248 500.922 14.1898 500.399 14.0231 499.854C13.8715 499.293 13.7958 498.831 13.7958 498.467C13.7958 497.633 14.0231 496.837 14.4778 496.08C14.9477 495.322 15.6222 494.7 16.5013 494.215C17.3956 493.73 18.4793 493.488 19.7525 493.488C20.7984 493.488 21.7078 493.723 22.4808 494.193C23.2538 494.662 23.8525 495.284 24.2769 496.057C24.7165 496.815 24.9363 497.626 24.9363 498.49C24.9363 499.172 24.8302 499.831 24.618 500.468C24.4058 501.104 24.1102 501.733 23.7313 502.355C23.3675 502.961 22.9507 503.567 22.4808 504.174C22.0109 504.765 21.5259 505.371 21.0257 505.992L19.5252 505.56H25.1182V508.743H14.2277ZM30.8478 508.925C29.9535 508.925 29.082 508.759 28.2332 508.425C27.3843 508.092 26.725 507.69 26.2551 507.22L27.9603 504.583C28.2332 504.916 28.6197 505.197 29.1198 505.424C29.6352 505.636 30.1278 505.742 30.5977 505.742C30.9463 505.742 31.2722 505.666 31.5753 505.515C31.8785 505.363 32.121 505.136 32.3029 504.833C32.4847 504.53 32.5757 504.158 32.5757 503.719C32.5757 503.234 32.4772 502.809 32.2801 502.446C32.0982 502.082 31.8254 501.801 31.4616 501.604C31.113 501.392 30.6962 501.286 30.2112 501.286C29.7413 501.286 29.2942 501.354 28.8698 501.491C28.4454 501.612 27.9452 501.824 27.3692 502.127H27.3465V493.67H34.872V496.853H30.1884V499.285L29.8019 498.603C30.0141 498.573 30.2187 498.55 30.4158 498.535C30.6128 498.52 30.8099 498.512 31.0069 498.512C32.0679 498.512 32.9622 498.747 33.6897 499.217C34.4324 499.687 35.0008 500.308 35.3949 501.081C35.789 501.854 35.9861 502.696 35.9861 503.605C35.9861 504.605 35.7587 505.507 35.304 506.311C34.8493 507.114 34.2278 507.751 33.4396 508.22C32.6666 508.69 31.8027 508.925 30.8478 508.925ZM37.2269 492.01H48.5039V495.193H44.4342V508.743H41.1375V495.193H37.2269V492.01ZM64.8495 492.01V508.743H61.5528V501.945H54.0727V508.743H50.776V492.01H54.0727V498.762H61.5528V492.01H64.8495ZM74.5756 492.51H77.4403V514.132H74.5756V492.51ZM86.3268 508.743C87.2666 507.789 88.1684 506.871 89.0324 505.992C89.8963 505.098 90.6693 504.242 91.3514 503.423C92.0486 502.59 92.5943 501.786 92.9884 501.013C93.3976 500.24 93.6023 499.49 93.6023 498.762C93.6023 498.444 93.5416 498.156 93.4204 497.898C93.3143 497.641 93.1551 497.421 92.9429 497.239C92.7459 497.057 92.5034 496.921 92.2154 496.83C91.9425 496.724 91.6318 496.671 91.2832 496.671C90.9346 496.671 90.6239 496.724 90.351 496.83C90.0782 496.921 89.8509 497.05 89.669 497.216C89.4871 497.383 89.3431 497.565 89.237 497.762C89.146 497.959 89.1006 498.164 89.1006 498.376C89.1006 498.861 89.1764 499.293 89.3279 499.672C89.4947 500.036 89.7144 500.361 89.9873 500.649L87.9638 502.491C87.5242 502.279 87.1453 501.923 86.827 501.422C86.5239 500.922 86.2889 500.399 86.1222 499.854C85.9706 499.293 85.8948 498.831 85.8948 498.467C85.8948 497.633 86.1222 496.837 86.5769 496.08C87.0468 495.322 87.7213 494.7 88.6004 494.215C89.4947 493.73 90.5784 493.488 91.8516 493.488C92.8974 493.488 93.8069 493.723 94.5799 494.193C95.3529 494.662 95.9516 495.284 96.376 496.057C96.8156 496.815 97.0354 497.626 97.0354 498.49C97.0354 499.172 96.9293 499.831 96.7171 500.468C96.5049 501.104 96.2093 501.733 95.8304 502.355C95.4666 502.961 95.0498 503.567 94.5799 504.174C94.11 504.765 93.625 505.371 93.1248 505.992L91.6242 505.56H97.2172V508.743H86.3268ZM103.947 508.925C102.856 508.925 101.871 508.668 100.992 508.152C100.112 507.637 99.4152 506.879 98.8999 505.879C98.3845 504.878 98.1269 503.658 98.1269 502.218C98.1269 501.324 98.2936 500.46 98.627 499.626C98.9757 498.778 99.4455 497.974 100.037 497.216C100.643 496.443 101.34 495.723 102.128 495.056C102.917 494.39 103.758 493.791 104.652 493.26L106.857 495.648C105.645 496.117 104.652 496.724 103.879 497.466C103.106 498.194 102.538 498.952 102.174 499.74C101.81 500.528 101.628 501.256 101.628 501.923L100.81 501.832C101.219 500.877 101.742 500.134 102.378 499.604C103.03 499.073 103.932 498.808 105.084 498.808C105.812 498.808 106.516 499.012 107.198 499.422C107.881 499.831 108.434 500.399 108.858 501.127C109.298 501.854 109.517 502.703 109.517 503.673C109.517 504.795 109.245 505.75 108.699 506.538C108.168 507.311 107.479 507.902 106.63 508.311C105.781 508.721 104.887 508.925 103.947 508.925ZM103.811 505.97C104.25 505.97 104.637 505.886 104.97 505.72C105.319 505.538 105.592 505.28 105.789 504.947C105.986 504.598 106.084 504.181 106.084 503.696C106.084 503.226 105.978 502.84 105.766 502.537C105.569 502.218 105.296 501.983 104.948 501.832C104.614 501.665 104.235 501.582 103.811 501.582C103.386 501.582 103 501.665 102.651 501.832C102.318 501.983 102.045 502.196 101.833 502.468C101.636 502.726 101.537 503.006 101.537 503.31V503.855C101.537 504.219 101.636 504.56 101.833 504.878C102.03 505.197 102.303 505.462 102.651 505.674C103 505.871 103.386 505.97 103.811 505.97ZM110.303 492.01H121.58V495.193H117.51V508.743H114.213V495.193H110.303V492.01ZM137.925 492.01V508.743H134.629V501.945H127.149V508.743H123.852V492.01H127.149V498.762H134.629V492.01H137.925ZM147.652 492.51H150.516V514.132H147.652V492.51ZM159.403 508.743C160.343 507.789 161.244 506.871 162.108 505.992C162.972 505.098 163.745 504.242 164.427 503.423C165.125 502.59 165.67 501.786 166.064 501.013C166.474 500.24 166.678 499.49 166.678 498.762C166.678 498.444 166.618 498.156 166.496 497.898C166.39 497.641 166.231 497.421 166.019 497.239C165.822 497.057 165.579 496.921 165.291 496.83C165.019 496.724 164.708 496.671 164.359 496.671C164.011 496.671 163.7 496.724 163.427 496.83C163.154 496.921 162.927 497.05 162.745 497.216C162.563 497.383 162.419 497.565 162.313 497.762C162.222 497.959 162.177 498.164 162.177 498.376C162.177 498.861 162.252 499.293 162.404 499.672C162.571 500.036 162.79 500.361 163.063 500.649L161.04 502.491C160.6 502.279 160.221 501.923 159.903 501.422C159.6 500.922 159.365 500.399 159.198 499.854C159.047 499.293 158.971 498.831 158.971 498.467C158.971 497.633 159.198 496.837 159.653 496.08C160.123 495.322 160.797 494.7 161.676 494.215C162.571 493.73 163.654 493.488 164.928 493.488C165.973 493.488 166.883 493.723 167.656 494.193C168.429 494.662 169.028 495.284 169.452 496.057C169.892 496.815 170.111 497.626 170.111 498.49C170.111 499.172 170.005 499.831 169.793 500.468C169.581 501.104 169.285 501.733 168.906 502.355C168.543 502.961 168.126 503.567 167.656 504.174C167.186 504.765 166.701 505.371 166.201 505.992L164.7 505.56H170.293V508.743H159.403ZM170.862 503.855C170.862 503.067 171.006 502.4 171.294 501.854C171.582 501.309 171.93 500.862 172.34 500.513C172.764 500.149 173.151 499.861 173.499 499.649C173.166 499.3 172.878 498.944 172.635 498.581C172.408 498.202 172.294 497.671 172.294 496.989C172.294 496.307 172.484 495.701 172.863 495.17C173.257 494.64 173.78 494.23 174.431 493.942C175.083 493.639 175.803 493.488 176.591 493.488C177.379 493.488 178.099 493.639 178.751 493.942C179.418 494.23 179.949 494.624 180.343 495.125C180.752 495.625 180.957 496.193 180.957 496.83C180.957 497.588 180.828 498.156 180.57 498.535C180.327 498.914 180.024 499.285 179.661 499.649C180.024 499.876 180.403 500.172 180.797 500.536C181.207 500.9 181.555 501.354 181.843 501.9C182.131 502.43 182.275 503.082 182.275 503.855C182.275 504.734 182.025 505.56 181.525 506.333C181.025 507.106 180.343 507.735 179.479 508.22C178.63 508.69 177.652 508.925 176.546 508.925C175.439 508.925 174.454 508.69 173.59 508.22C172.741 507.735 172.074 507.106 171.589 506.333C171.104 505.56 170.862 504.734 170.862 503.855ZM174.249 503.719C174.249 504.158 174.356 504.568 174.568 504.947C174.78 505.31 175.06 505.606 175.409 505.833C175.758 506.045 176.144 506.152 176.569 506.152C177.008 506.152 177.41 506.045 177.773 505.833C178.137 505.606 178.425 505.31 178.637 504.947C178.865 504.568 178.978 504.158 178.978 503.719C178.978 503.279 178.872 502.885 178.66 502.537C178.463 502.173 178.19 501.877 177.842 501.65C177.508 501.422 177.129 501.301 176.705 501.286C176.281 501.271 175.879 501.369 175.5 501.582C175.136 501.794 174.833 502.089 174.59 502.468C174.363 502.832 174.249 503.249 174.249 503.719ZM175.5 497.398C175.5 497.701 175.621 497.967 175.864 498.194C176.121 498.421 176.387 498.535 176.659 498.535C176.932 498.535 177.19 498.421 177.432 498.194C177.675 497.967 177.796 497.701 177.796 497.398C177.796 497.095 177.675 496.83 177.432 496.602C177.205 496.36 176.947 496.239 176.659 496.239C176.371 496.239 176.106 496.36 175.864 496.602C175.621 496.83 175.5 497.095 175.5 497.398ZM182.735 492.01H194.012V495.193H189.942V508.743H186.646V495.193H182.735V492.01ZM210.358 492.01V508.743H207.061V501.945H199.581V508.743H196.284V492.01H199.581V498.762H207.061V492.01H210.358ZM220.084 492.51H222.948V514.132H220.084V492.51ZM231.835 508.743C232.775 507.789 233.677 506.871 234.54 505.992C235.404 505.098 236.177 504.242 236.86 503.423C237.557 502.59 238.102 501.786 238.497 501.013C238.906 500.24 239.11 499.49 239.11 498.762C239.11 498.444 239.05 498.156 238.928 497.898C238.822 497.641 238.663 497.421 238.451 497.239C238.254 497.057 238.011 496.921 237.723 496.83C237.451 496.724 237.14 496.671 236.791 496.671C236.443 496.671 236.132 496.724 235.859 496.83C235.586 496.921 235.359 497.05 235.177 497.216C234.995 497.383 234.851 497.565 234.745 497.762C234.654 497.959 234.609 498.164 234.609 498.376C234.609 498.861 234.684 499.293 234.836 499.672C235.003 500.036 235.223 500.361 235.495 500.649L233.472 502.491C233.032 502.279 232.653 501.923 232.335 501.422C232.032 500.922 231.797 500.399 231.63 499.854C231.479 499.293 231.403 498.831 231.403 498.467C231.403 497.633 231.63 496.837 232.085 496.08C232.555 495.322 233.229 494.7 234.109 494.215C235.003 493.73 236.087 493.488 237.36 493.488C238.406 493.488 239.315 493.723 240.088 494.193C240.861 494.662 241.46 495.284 241.884 496.057C242.324 496.815 242.543 497.626 242.543 498.49C242.543 499.172 242.437 499.831 242.225 500.468C242.013 501.104 241.717 501.733 241.338 502.355C240.975 502.961 240.558 503.567 240.088 504.174C239.618 504.765 239.133 505.371 238.633 505.992L237.132 505.56H242.725V508.743H231.835ZM248.068 504.037C247.341 504.037 246.636 503.832 245.954 503.423C245.287 503.014 244.734 502.446 244.294 501.718C243.855 500.975 243.635 500.127 243.635 499.172C243.635 497.959 243.9 496.928 244.431 496.08C244.976 495.231 245.674 494.587 246.522 494.147C247.371 493.707 248.266 493.488 249.205 493.488C250.312 493.488 251.297 493.738 252.161 494.238C253.04 494.723 253.737 495.398 254.253 496.261C254.768 497.11 255.026 498.073 255.026 499.149C255.026 500.392 254.806 501.513 254.366 502.514C253.942 503.499 253.366 504.386 252.638 505.174C251.926 505.962 251.13 506.682 250.251 507.334C249.372 507.97 248.485 508.569 247.591 509.13L245.386 506.743C246.598 506.242 247.667 505.674 248.591 505.037C249.516 504.386 250.236 503.711 250.751 503.014C251.267 502.302 251.524 501.604 251.524 500.922L252.343 501.013C251.934 501.968 251.411 502.711 250.774 503.241C250.137 503.772 249.236 504.037 248.068 504.037ZM249.342 501.263C249.978 501.263 250.516 501.059 250.956 500.649C251.395 500.24 251.615 499.778 251.615 499.263V498.74C251.615 498.346 251.517 497.974 251.32 497.626C251.123 497.277 250.85 496.997 250.501 496.784C250.168 496.557 249.781 496.443 249.342 496.443C248.917 496.443 248.531 496.542 248.182 496.739C247.834 496.921 247.561 497.194 247.364 497.557C247.167 497.921 247.068 498.368 247.068 498.899C247.068 499.414 247.167 499.854 247.364 500.217C247.576 500.566 247.849 500.831 248.182 501.013C248.531 501.18 248.917 501.263 249.342 501.263ZM255.478 492.01H266.755V495.193H262.685V508.743H259.389V495.193H255.478V492.01ZM283.101 492.01V508.743H279.804V501.945H272.324V508.743H269.027V492.01H272.324V498.762H279.804V492.01H283.101ZM291.099 508.743L298.647 491.351H298.829L306.377 508.743H302.558L297.738 496.512L300.125 494.875L294.35 508.743H291.099ZM296.26 502.696H301.284L302.444 505.469H295.237L296.26 502.696ZM312.977 492.01C314.356 492.01 315.524 492.245 316.478 492.715C317.433 493.169 318.161 493.821 318.661 494.67C319.161 495.504 319.411 496.496 319.411 497.648C319.411 498.33 319.305 499.02 319.093 499.717C318.896 500.399 318.57 501.021 318.115 501.582C317.676 502.142 317.077 502.597 316.319 502.946C315.577 503.279 314.66 503.446 313.568 503.446H311.204V508.743H307.907V492.01H312.977ZM313.546 500.24C314.046 500.24 314.463 500.157 314.796 499.99C315.129 499.808 315.387 499.588 315.569 499.331C315.766 499.058 315.903 498.778 315.978 498.49C316.069 498.202 316.115 497.951 316.115 497.739C316.115 497.573 316.084 497.353 316.024 497.08C315.978 496.792 315.872 496.504 315.705 496.216C315.539 495.928 315.281 495.685 314.932 495.488C314.599 495.291 314.144 495.193 313.568 495.193H311.204V500.24H313.546ZM326.522 492.01C327.568 492.01 328.5 492.146 329.318 492.419C330.137 492.677 330.819 493.056 331.365 493.556C331.925 494.041 332.35 494.632 332.638 495.329C332.926 496.011 333.07 496.784 333.07 497.648C333.07 498.33 332.964 499.012 332.751 499.695C332.554 500.377 332.221 500.998 331.751 501.559C331.296 502.12 330.69 502.574 329.932 502.923C329.174 503.257 328.235 503.423 327.113 503.423H324.748V508.743H321.452V492.01H326.522ZM327.09 500.24C327.59 500.24 328.007 500.157 328.341 499.99C328.674 499.823 328.932 499.611 329.114 499.354C329.311 499.096 329.447 498.831 329.523 498.558C329.614 498.27 329.659 498.005 329.659 497.762C329.659 497.58 329.629 497.353 329.568 497.08C329.523 496.792 329.417 496.504 329.25 496.216C329.083 495.928 328.826 495.685 328.477 495.488C328.144 495.291 327.689 495.193 327.113 495.193H324.748V500.24H327.09ZM330.182 502.286L334.32 508.743H330.478L326.249 502.377L330.182 502.286ZM336.129 492.01H339.425V508.743H336.129V492.01ZM342.835 492.01H346.132V505.56H353.998V508.743H342.835V492.01ZM356.422 496.034L354.785 495.398C355.119 495.094 355.392 494.655 355.604 494.079C355.816 493.503 355.869 492.95 355.763 492.419L358.196 492.26C358.287 492.684 358.249 493.154 358.082 493.67C357.931 494.185 357.703 494.655 357.4 495.079C357.112 495.504 356.786 495.822 356.422 496.034ZM359.134 508.743C360.074 507.789 360.976 506.871 361.84 505.992C362.704 505.098 363.477 504.242 364.159 503.423C364.856 502.59 365.402 501.786 365.796 501.013C366.205 500.24 366.409 499.49 366.409 498.762C366.409 498.444 366.349 498.156 366.228 497.898C366.121 497.641 365.962 497.421 365.75 497.239C365.553 497.057 365.311 496.921 365.023 496.83C364.75 496.724 364.439 496.671 364.09 496.671C363.742 496.671 363.431 496.724 363.158 496.83C362.885 496.921 362.658 497.05 362.476 497.216C362.294 497.383 362.15 497.565 362.044 497.762C361.953 497.959 361.908 498.164 361.908 498.376C361.908 498.861 361.984 499.293 362.135 499.672C362.302 500.036 362.522 500.361 362.794 500.649L360.771 502.491C360.331 502.279 359.953 501.923 359.634 501.422C359.331 500.922 359.096 500.399 358.929 499.854C358.778 499.293 358.702 498.831 358.702 498.467C358.702 497.633 358.929 496.837 359.384 496.08C359.854 495.322 360.528 494.7 361.408 494.215C362.302 493.73 363.386 493.488 364.659 493.488C365.705 493.488 366.614 493.723 367.387 494.193C368.16 494.662 368.759 495.284 369.183 496.057C369.623 496.815 369.843 497.626 369.843 498.49C369.843 499.172 369.736 499.831 369.524 500.468C369.312 501.104 369.017 501.733 368.638 502.355C368.274 502.961 367.857 503.567 367.387 504.174C366.917 504.765 366.432 505.371 365.932 505.992L364.431 505.56H370.024V508.743H359.134ZM370.479 505.447V505.424L380.097 493.488H380.119V502.946H381.915V505.447H380.119V508.743H376.8V505.447H370.479ZM376.959 500.74L375.208 503.082L374.89 502.946H376.8V500.581L376.959 500.74Z" fill="#FF6B01"/>
<path d="M15.4326 435.509L31.8064 426.636C34.9236 424.947 38.7158 427.201 38.7158 430.743V436.469C38.7158 438.134 37.8281 439.674 36.3857 440.51L30.0187 444.2C28.5763 445.035 27.6886 446.575 27.6886 448.24V453.854C27.6886 455.694 28.7708 457.364 30.4526 458.117L35.9518 460.58C37.6336 461.333 38.7158 463.002 38.7158 464.843V471.183C38.7158 474.707 34.9585 476.962 31.8425 475.309L15.4687 466.621C13.9407 465.81 12.9855 464.223 12.9855 462.495V439.616C12.9855 437.902 13.9246 436.326 15.4326 435.509Z" fill="white"/>
<path fill-rule="evenodd" clip-rule="evenodd" d="M110.226 427.368C108.442 425.655 105.63 425.626 103.811 427.303L79.9883 449.264C78.1253 450.981 77.9712 453.868 79.6407 455.773L98.3595 477.138C99.9649 478.97 102.71 479.264 104.668 477.813L133.016 456.809C135.34 455.087 135.557 451.692 133.471 449.689L110.226 427.368ZM107.666 453.376C105.826 451.271 102.561 451.238 100.679 453.305L95.0907 459.445C93.5933 461.089 93.4639 463.56 94.7814 465.352L98.9313 470.997C100.559 473.211 103.74 473.551 105.801 471.732L112.426 465.882C114.352 464.181 114.543 461.245 112.852 459.31L107.666 453.376Z" fill="white"/>
<path fill-rule="evenodd" clip-rule="evenodd" d="M271.164 425.92C269.38 424.207 266.567 424.178 264.748 425.855L240.926 447.816C239.063 449.533 238.909 452.42 240.578 454.326L259.297 475.69C260.902 477.522 263.648 477.816 265.605 476.366L293.954 455.361C296.278 453.639 296.494 450.244 294.409 448.241L271.164 425.92ZM270.942 433.24C269.103 431.135 265.838 431.102 263.956 433.169L258.367 439.309C256.87 440.954 256.741 443.425 258.058 445.217L262.208 450.861C263.836 453.075 267.017 453.415 269.078 451.596L275.702 445.746C277.629 444.045 277.819 441.109 276.128 439.174L270.942 433.24Z" fill="white"/>
<path d="M49.2633 426.22C46.2969 425.441 43.3944 427.675 43.3944 430.738V472.231C43.3944 475.918 47.4699 478.152 50.5843 476.173L54.8393 473.469C55.7239 472.907 56.2596 471.932 56.2596 470.885V462.846C56.2596 461.894 54.9966 461.559 54.5239 462.385C54.22 462.917 53.4935 463.014 53.0604 462.581L49.7525 459.278C48.1303 457.658 47.9873 455.079 49.4204 453.29L52.022 450.042C54.4995 446.949 59.4803 449.101 58.9194 453.022C58.77 454.067 59.052 455.127 59.7008 455.96L71.2287 470.762C72.115 471.9 73.4778 472.566 74.9215 472.566H77.8495C81.8158 472.566 83.9826 467.946 81.4434 464.903L73.2318 455.062C71.6004 453.107 71.836 450.208 73.7618 448.541L81.1406 442.154C83.9825 439.695 82.9041 435.061 79.2673 434.106L49.2633 426.22Z" fill="white"/>
<path d="M210.201 424.773C207.234 423.993 204.332 426.227 204.332 429.291V470.784C204.332 474.47 208.407 476.704 211.522 474.725L215.031 472.495C216.38 471.638 217.197 470.151 217.197 468.554V453.629C217.197 451.764 215.894 450.152 214.068 449.76C210.723 449.041 209.801 444.712 212.563 442.696L215.717 440.394C217.934 438.775 221.063 439.403 222.483 441.75L226.454 448.32C227.533 450.104 225.955 452.313 223.914 451.875C221.74 451.408 220.167 453.908 221.533 455.661L232.166 469.315C233.053 470.453 234.415 471.118 235.859 471.118H238.787C242.753 471.118 244.92 466.498 242.381 463.455L234.169 453.615C232.538 451.659 232.774 448.76 234.699 447.093L242.078 440.707C244.92 438.247 243.842 433.614 240.205 432.658L210.201 424.773Z" fill="white"/>
<path d="M332.873 469.928C333.712 473.142 337.546 474.479 340.206 472.486L359.939 457.706C362.491 455.794 362.421 451.949 359.801 450.131L345.976 440.541C344.246 439.341 341.923 440.81 342.269 442.885C342.316 443.162 342.411 443.429 342.551 443.673L349.756 456.267C350.879 458.229 350.434 460.713 348.7 462.165L345.995 464.43C342.75 467.147 337.848 464.504 338.343 460.304L340.743 439.922C340.945 438.209 340.184 436.524 338.765 435.539L330.982 430.14C327.415 427.666 322.69 430.96 323.787 435.157L332.873 469.928Z" fill="white"/>
<path d="M127.509 426.064H154.028C155.07 426.064 156.057 426.526 156.724 427.325C158.628 429.607 157.003 433.072 154.028 433.072H147.129C142.802 433.072 140.794 438.434 144.059 441.27L157.184 452.667C159.422 454.61 159.308 458.115 156.95 459.909L137.667 474.581C137.199 474.937 136.667 475.2 136.1 475.354C131.171 476.697 128.086 470.181 132.252 467.228L142.88 459.696C145.271 458.001 145.53 454.552 143.417 452.52L124.264 434.101C121.231 431.185 123.299 426.064 127.509 426.064Z" fill="white"/>
<path d="M352.35 426.952H378.122C379.164 426.952 380.151 427.414 380.818 428.213C382.722 430.495 381.097 433.96 378.122 433.96H371.223C366.896 433.96 364.888 439.322 368.153 442.158L380.907 453.233C383.26 455.277 382.99 459.005 380.367 460.689L355.273 476.799C353.868 477.701 352.023 477.503 350.842 476.323C349.4 474.884 349.466 472.53 350.985 471.173L366.49 457.318C368.577 455.454 368.567 452.189 366.471 450.337L349.25 435.124C346.024 432.274 348.043 426.952 352.35 426.952Z" fill="white"/>
<path d="M165.682 426.064H191.454C192.496 426.064 193.483 426.526 194.15 427.325C196.054 429.607 194.429 433.072 191.454 433.072H184.555C180.228 433.072 178.22 438.434 181.485 441.27L194.239 452.345C196.592 454.389 196.322 458.116 193.699 459.8L168.605 475.911C167.2 476.813 165.355 476.615 164.174 475.435C162.732 473.995 162.798 471.642 164.317 470.284L179.822 456.43C181.909 454.566 181.899 451.301 179.803 449.449L162.582 434.235C159.356 431.385 161.375 426.064 165.682 426.064Z" fill="white"/>
<path fill-rule="evenodd" clip-rule="evenodd" d="M291.322 467.57L307.64 432.014C309.374 428.236 314.812 428.429 316.273 432.32L329.657 467.961C331.084 471.762 327.313 475.447 323.539 473.939L318.364 471.872C316.8 471.248 315.693 469.832 315.466 468.166L315.429 467.898C314.741 462.856 307.621 462.391 306.28 467.3L305.938 468.556C305.542 470.004 304.474 471.174 303.067 471.701L297.217 473.892C293.308 475.356 289.582 471.361 291.322 467.57ZM310.673 431.711L306.184 456.629C305.725 459.176 307.686 461.518 310.278 461.518C312.66 461.518 314.555 459.523 314.431 457.147L313.102 431.727C312.874 430.364 310.918 430.352 310.673 431.711Z" fill="white"/>
<g filter="url(#filter0_d_647_272)">
<path d="M12.9855 307.391C12.9855 310.423 14.6063 313.225 17.2368 314.74L179.592 408.24C185.267 411.509 192.353 407.403 192.33 400.861L191.974 300.04C191.963 296.919 190.237 294.057 187.481 292.587L116.141 254.53C113.376 253.055 111.649 250.178 111.649 247.047V177.362C111.649 174.558 110.261 171.934 107.941 170.354L26.2678 114.71C20.629 110.869 12.9855 114.902 12.9855 121.719V307.391Z" fill="white"/>
<path d="M203.8 300.734C203.835 307.07 210.56 311.134 216.197 308.223L229.913 301.14C232.735 299.683 234.506 296.776 234.506 293.604V246.088C234.506 243.738 235.853 241.595 237.971 240.572C242.045 238.606 246.775 241.57 246.775 246.088V306.95C246.775 310.075 245.054 312.947 242.296 314.425L208.355 332.612C205.597 334.09 203.876 336.962 203.876 340.087V401.172C203.876 407.707 210.964 411.789 216.627 408.514L324.715 346.023C327.339 344.506 328.954 341.708 328.954 338.681V329.192C328.954 322.681 321.913 318.597 316.25 321.823L238.818 365.935C233.154 369.161 226.113 365.077 226.113 358.566V353.233C226.113 350.194 227.74 347.388 230.379 345.875L275.219 320.165C277.857 318.652 279.484 315.846 279.484 312.807V202.745C279.484 196.354 272.676 192.258 267.019 195.245L207.958 226.428C205.159 227.905 203.416 230.813 203.433 233.974L203.8 300.734Z" fill="#FF6B01"/>
<path d="M378.304 315.028C380.912 313.507 382.515 310.718 382.515 307.702V247.397C382.515 240.864 375.432 236.782 369.769 240.052L327.571 264.415C321.912 267.682 314.833 263.609 314.824 257.082L314.723 184.719C314.714 178.18 307.612 174.109 301.954 177.4L291.408 183.532C288.795 185.051 287.187 187.843 287.187 190.863V300.093C287.187 306.579 294.178 310.666 299.841 307.491L347.262 280.903C352.925 277.728 359.916 281.815 359.916 288.3V310.973C359.916 317.523 367.031 321.602 372.695 318.299L378.304 315.028Z" fill="#FF6B01"/>
<path d="M309.198 78.1333C314.858 74.8553 314.838 66.6868 309.163 63.4357L300.255 58.3324C294.59 55.0872 287.53 59.1734 287.533 65.6955L287.538 75.9554C287.542 82.4916 294.633 86.5691 300.295 83.2899L309.198 78.1333Z" fill="white"/>
<path d="M277.338 159.97C277.338 156.862 279.04 154.003 281.774 152.518L361.546 109.183C367.39 106.008 367.477 97.6606 361.701 94.3643L334.101 78.6139C331.49 77.1236 328.284 77.1236 325.672 78.6139L290.048 98.9437C284.384 102.176 277.338 98.0918 277.338 91.5779V50.0606C277.338 47.0229 275.712 44.2169 273.074 42.704L216.395 10.1945C210.732 6.94621 203.67 11.0287 203.669 17.5508L203.663 199.065C203.662 205.496 210.548 209.589 216.209 206.522L272.894 175.81C275.633 174.326 277.338 171.464 277.338 168.353V159.97Z" fill="white"/>
<path d="M191.956 118.602C191.956 121.542 190.431 124.274 187.926 125.819L121.735 166.652C118.88 168.413 115.255 168.331 112.483 166.443L29.5749 109.958C24.3966 106.43 24.697 98.7079 30.1339 95.5918L179.233 10.1382C184.896 6.89239 191.956 10.9753 191.956 17.4962V118.602Z" fill="white"/>
</g>
<defs>
<filter id="filter0_d_647_272" x="0.885534" y="0.9" width="393.73" height="424.869" filterUnits="userSpaceOnUse" color-interpolation-filters="sRGB">
<feFlood flood-opacity="0" result="BackgroundImageFix"/>
<feColorMatrix in="SourceAlpha" type="matrix" values="0 0 0 0 0 0 0 0 0 0 0 0 0 0 0 0 0 0 127 0" result="hardAlpha"/>
<feOffset dy="4"/>
<feGaussianBlur stdDeviation="6.05"/>
<feComposite in2="hardAlpha" operator="out"/>
<feColorMatrix type="matrix" values="0 0 0 0 0.8 0 0 0 0 0.196078 0 0 0 0 0.447059 0 0 0 1 0"/>
<feBlend mode="normal" in2="BackgroundImageFix" result="effect1_dropShadow_647_272"/>
<feBlend mode="normal" in="SourceGraphic" in2="effect1_dropShadow_647_272" result="shape"/>
</filter>
</defs>
</svg>
